<?xml version="1.0" encoding="UTF-8"?>
<svg version="1.1" viewBox="0 0 698 245" xmlns="http://www.w3.org/2000/svg">
<g fill="none" fill-rule="evenodd">
<g transform="translate(0 2)">
<path id="a" d="m0 0.5h241m-238.5 172.5v-171m239.5-1.5h456m-456.5 240v-238.5m454 171v-171m-693 237v-63m693 63v-63m-695.5 64.5h241m1 0h456" stroke="#E85454" stroke-width="4"/>
<polygon points="74.55 66.6 36.85 104.3 119.42 186.88 201.59 104.71 163.49 66.61" fill="#E85454" fill-rule="nonzero"/>
<path d="m125.9 141.6c-7.25-7.25-16.2-9.8-22.37-3.63s-3.63 15.1 3.63 22.37 16.2 9.8 22.37 3.63 3.63-15.1-3.63-22.37zm-6.73 6.73c5.33 5.33 6 8.12 4.42 9.7s-4.38 0.9-9.7-4.42-6-8.12-4.42-9.7 4.38-0.9 9.7 4.42zm39.5-14.25-25.24-25.24-6.2 6.2 11.4 11.4-16.55-6.27-6.57 6.57 25.24 25.26 6.2-6.2-11.68-11.68 17 6.4 6.4-6.43v-0.01zm-1.2-37.57-5.86-5.86-14.77 14.78 25.24 25.24 6.54-6.54-9.86-9.86 6.7-6.7-5.86-5.86-6.7 6.7-3.67-3.67 8.24-8.23zm-61.13 16.2-17.16-17.14-6.35 6.35 17 17c1.5 1.5 1.43 3.4-0.2 5s-3.48 1.66-5 0.15l-17-17-6.54 6.54 17.15 17.15c5.3 5.3 12.2 4.72 17.5-0.57s5.86-12.2 0.57-17.5h0.02l0.01 0.02zm28.9-12.72-25.24-25.23-6.2 6.24 11.4 11.4-16.55-6.32-6.58 6.57 25.24 25.24 6.2-6.2-11.67-11.7 17 6.4 6.4-6.4zm11.84-28.7-6.6 6.6c2.2 2.64 2.2 3.7 1.2 4.7-2.12 2.12-4.95-0.2-9.52-4.76s-6.8-7.33-4.68-9.45c0.87-0.87 1.9-1.06 4.16 0.9l6.54-6.54c-6-5.37-11.15-5.78-16.5-0.42-6.57 6.58-4.87 13.56 3.78 22.22s15.64 10.35 22.07 3.93c5.78-5.78 5.48-10.32-0.4-17.2h-0.03l-0.02 0.02zm145.67-27.82c0.006431-0.8059-0.23134-1.5949-0.682-2.263-0.455-0.682-1.343-1.023-2.666-1.023h-2.542v6.572h2.542c1.323 0 2.2-0.34 2.666-1.023 0.45066-0.66814 0.68843-1.4571 0.682-2.263zm2.542 28.53-8.184-15.5h-0.248v15.5h-10.788v-41.416h13.826c2.025 0 3.896 0.3 5.6 0.93s3.183 1.488 4.402 2.604 2.17 2.47 2.852 4.06 1.023 3.358 1.023 5.3c0 2.48-0.527 4.68-1.58 6.603s-2.573 3.42-4.557 4.495l10.116 17.424h-12.462zm49.042-13.268c0 2.2-0.362 4.144-1.085 5.86s-1.746 3.162-3.07 4.34-2.893 2.087-4.712 2.728-3.803 0.96-5.952 0.96c-2.2 0-4.185-0.32-5.983-0.96s-3.358-1.55-4.68-2.728-2.346-2.625-3.07-4.34-1.085-3.668-1.085-5.86v-28.148h10.726v27.9c0 1.24 0.372 2.2 1.116 2.914s1.777 1.054 3.1 1.054 2.366-0.35 3.13-1.054 1.147-1.674 1.147-2.914v-27.9h10.416v28.148h2e-3zm30.07-0.124c0-0.95-0.3-1.83-0.93-2.635s-1.674-1.2-3.162-1.2h-5.766v7.688h5.766c1.488 0 2.542-0.403 3.162-1.2s0.93-1.684 0.93-2.635v-0.018zm-1.054-15.562c0-0.703-0.227-1.364-0.682-1.984s-1.302-0.93-2.542-0.93h-5.58v5.828h5.58c1.24 0 2.087-0.3 2.542-0.93s0.682-1.28 0.682-1.984zm12.1 15.934c0 1.943-0.34 3.7-1.023 5.3s-1.674 2.955-2.976 4.092-2.873 2.025-4.712 2.666-3.896 0.96-6.17 0.96h-16.74v-41.414h15.996c2.108 0 4.04 0.27 5.797 0.806s3.276 1.312 4.557 2.325 2.284 2.273 3.007 3.782 1.085 3.234 1.085 5.177c0 1.57-0.3 3.038-0.868 4.402s-1.364 2.397-2.356 3.1c0.868 0.58 1.6 1.23 2.17 1.953s1.033 1.488 1.364 2.294c0.31952 0.76639 0.54841 1.5675 0.682 2.387 0.1183 0.7174 0.18048 1.4429 0.186 2.17h1e-3zm26.288-5.208v18.228h-10.726v-18.228l-11.976-23.188h12.214l5.394 11.718 5.456-11.718h11.656l-12.028 23.188h0.01zm71.486 4.96c0 2.2-0.362 4.144-1.085 5.86s-1.746 3.162-3.07 4.34-2.893 2.087-4.712 2.728-3.803 0.96-5.952 0.96c-2.2 0-4.185-0.32-5.983-0.96s-3.358-1.55-4.68-2.728-2.346-2.625-3.07-4.34-1.085-3.668-1.085-5.86v-28.148h10.726v27.9c0 1.24 0.372 2.2 1.116 2.914s1.777 1.054 3.1 1.054 2.366-0.35 3.13-1.054 1.147-1.674 1.147-2.914v-27.9h10.416v28.148h2e-3zm29.006 13.268-8.68-19.158v19.158h-10.168v-41.416h10.788l8.432 18.724v-18.724h10.168v41.416h-10.54zm50.22-13.826c-0.207 2.604-0.6 4.826-1.147 6.665s-1.385 3.338-2.48 4.495-2.47 1.994-4.123 2.5-3.658 0.775-6.014 0.775c-5.3 0-9.093-1.767-11.408-5.3s-3.472-8.876-3.472-16.027c0-3.555 0.28-6.665 0.837-9.33s1.447-4.888 2.666-6.665 2.8-3.1 4.712-4 4.226-1.333 6.913-1.333c4.423 0 7.667 1.147 9.734 3.44s3.224 5.776 3.472 10.447h-10.726c-0.124-1.736-0.424-2.862-0.9-3.38-0.44693-0.50485-1.0929-0.78816-1.767-0.775-1.736 0-2.82 0.992-3.255 2.976-0.413 1.9-0.63 4.585-0.65 8.087l-1e-3 0.53c0 1.86 0.04 3.524 0.124 5s0.258 2.697 0.527 3.7 0.66 1.746 1.178 2.263 1.2 0.775 2.077 0.775c0.827 0 1.457-0.3 1.9-0.93s0.754-1.922 0.96-3.906h10.85l-7e-3 -7e-3zm29.326-6.882c0-2.2-0.103-4.03-0.3-5.518s-0.496-2.676-0.868-3.565-0.827-1.53-1.364-1.922c-0.51932-0.38679-1.1505-0.5939-1.798-0.59008-0.64763-0.0045565-1.279 0.20263-1.798 0.59008-0.538 0.394-0.992 1.033-1.364 1.922s-0.66 2.077-0.868 3.565-0.3 3.327-0.3 5.518 0.103 4.03 0.3 5.518 0.496 2.676 0.868 3.565 0.827 1.53 1.364 1.922c0.51932 0.38679 1.1505 0.5939 1.798 0.59008 0.64763 0.0045565 1.279-0.20263 1.798-0.59008 0.538-0.394 0.992-1.033 1.364-1.922s0.66-2.077 0.868-3.565 0.3-3.327 0.3-5.518zm11.036 0c0 2.976-0.33 5.766-0.992 8.37s-1.633 4.867-2.914 6.8-2.883 3.43-4.805 4.526-4.144 1.643-6.665 1.643-4.743-0.548-6.665-1.643-3.524-2.604-4.805-4.526-2.253-4.185-2.914-6.8-0.992-5.394-0.992-8.37 0.33-5.756 0.992-8.34 1.633-4.836 2.914-6.758 2.883-3.44 4.805-4.557 4.144-1.674 6.665-1.674 4.743 0.558 6.665 1.674 3.524 2.635 4.805 4.557 2.253 4.175 2.914 6.758 0.992 5.363 0.992 8.34zm28.458 20.708-8.68-19.158v19.158h-10.168v-41.416h10.788l8.432 18.724v-18.724h10.168v41.416h-10.54zm33.046-31.806v6.014h10.974v9.6h-10.974v16.192h-10.726v-41.416h24.242v9.6h-13.516v0.01zm-370.64 99.806v-16.74h-7.688v16.74h-10.726v-41.416h10.726v15.066h7.688v-15.066h10.716v41.416h-10.726 0.01zm35.526-28.892-2.852 12.7h5.766l-2.914-12.7zm6.572 28.892-1.798-7.998h-9.424l-1.798 7.998h-10.478l9.92-41.416h14.57l9.92 41.416h-10.912zm42.904 0v-22.444l-4.588 8.928h-5.198l-4.588-8.928v22.444h-10.416v-41.416h10.664l6.944 12.772 6.944-12.772h10.974v41.416h-10.726-0.01zm40.362-13.392c0-0.95-0.3-1.83-0.93-2.635s-1.674-1.2-3.162-1.2h-5.756v7.688h5.766c1.488 0 2.542-0.403 3.162-1.2s0.93-1.684 0.93-2.635l-0.01-0.018zm-1.054-15.562c0-0.703-0.227-1.364-0.682-1.984s-1.302-0.93-2.542-0.93h-5.58v5.828h5.58c1.24 0 2.087-0.3 2.542-0.93s0.682-1.28 0.682-1.984zm12.1 15.934c0 1.943-0.34 3.7-1.023 5.3s-1.674 2.955-2.976 4.092-2.873 2.025-4.712 2.666-3.896 0.96-6.17 0.96h-16.74v-41.414h15.996c2.108 0 4.04 0.27 5.797 0.806s3.276 1.312 4.557 2.325 2.284 2.273 3.007 3.782 1.085 3.234 1.085 5.177c0 1.57-0.3 3.038-0.868 4.402s-1.364 2.397-2.356 3.1c0.868 0.58 1.6 1.23 2.17 1.953s1.033 1.488 1.364 2.294c0.31952 0.76639 0.54841 1.5675 0.682 2.387 0.1183 0.7174 0.18048 1.4429 0.186 2.17h1e-3zm38.254-0.248c0 2.2-0.362 4.144-1.085 5.86s-1.746 3.162-3.07 4.34-2.893 2.087-4.712 2.728-3.803 0.96-5.952 0.96c-2.2 0-4.185-0.32-5.983-0.96s-3.358-1.55-4.68-2.728-2.346-2.625-3.07-4.34-1.085-3.668-1.085-5.86v-28.148h10.726v27.9c0 1.24 0.372 2.2 1.116 2.914s1.777 1.054 3.1 1.054 2.366-0.35 3.13-1.054 1.147-1.674 1.147-2.914v-27.9h10.416v28.148h2e-3zm27.776-15.252c0.006431-0.8059-0.23134-1.5949-0.682-2.263-0.455-0.682-1.343-1.023-2.666-1.023h-2.542v6.572h2.542c1.323 0 2.2-0.34 2.666-1.023 0.45066-0.66814 0.68843-1.4571 0.682-2.263zm2.542 28.52-8.184-15.5h-0.248v15.5h-10.788v-41.416h13.826c2.025 0 3.896 0.3 5.6 0.93s3.183 1.488 4.402 2.604 2.17 2.47 2.852 4.06 1.023 3.358 1.023 5.3c0 2.48-0.527 4.68-1.58 6.603s-2.573 3.42-4.557 4.495l10.106 17.424h-12.462 0.01zm48.484-1.984c-2.15 0.992-4.247 1.674-6.293 2.046s-4.247 0.558-6.603 0.558c-3.183 0-5.838-0.6-7.967-1.767s-3.844-2.75-5.146-4.712-2.232-4.226-2.8-6.8-0.83704-5.25-0.83704-8.06c-0.004105-2.6505 0.29756-5.2926 0.89904-7.874 0.6-2.563 1.56-4.836 2.883-6.82s3.06-3.586 5.208-4.805 4.753-1.83 7.812-1.83c4.092 0 7.17 1.137 9.238 3.4s3.265 5.373 3.596 9.3h-10.726c-0.165-1.116-0.455-1.9-0.868-2.325s-1.013-0.65-1.798-0.65c-0.992 0-1.83 0.32-2.5 0.96s-1.22 1.498-1.612 2.573-0.672 2.315-0.837 3.72-0.248 2.852-0.248 4.34c-0.001615 1.4185 0.070817 2.8361 0.217 4.247 0.145 1.385 0.434 2.625 0.868 3.72s1.044 1.974 1.83 2.635 1.798 0.992 3.038 0.992c0.33 0 0.65-0.02 0.96-0.062 0.32322-0.044057 0.64372-0.10615 0.96-0.186v-5.518h-3.72v-9.486h14.446v22.382 0.022zm-242.48 37.806c0.004364 1.3346-0.19424 2.6621-0.58907 3.937-0.393 1.26-0.858 2.366-1.395 3.317-0.827 1.405-1.83 2.573-3.007 3.503-0.982 0.775-2.014 1.514-3.096 2.217l-0.655 0.418-3.193 2.077c-1.013 0.682-1.932 1.374-2.76 2.077s-1.52 1.467-2.077 2.294-0.94 1.736-1.147 2.728h17.298v9.6h-28.467v-6.448c0-2.687 0.27-4.94 0.806-6.758s1.343-3.45 2.418-4.898c1.033-1.447 2.304-2.75 3.813-3.906s3.317-2.397 5.425-3.72l0.87-0.527c0.52343-0.31945 1.0399-0.6502 1.549-0.992 0.58-0.393 1.157-0.878 1.736-1.457 0.95-0.95 1.426-2.108 1.426-3.472 0-0.33-0.052-0.692-0.155-1.085-0.10579-0.39759-0.29612-0.76768-0.558-1.085-0.27-0.33-0.6-0.6-1.023-0.837s-0.93-0.34-1.55-0.34c-0.66 0-1.395 0.052-2.2 0.155s-1.757 0.362-2.852 0.775-2.387 1.033-3.875 1.86-3.245 1.963-5.27 3.4v-11.16c1.364-0.9 2.635-1.664 3.813-2.263 1.1093-0.57032 2.2595-1.0573 3.441-1.457 1.116-0.372 2.222-0.64 3.317-0.806s2.242-0.248 3.44-0.248c2.77 0 5.084 0.393 6.944 1.178s3.348 1.798 4.464 3.038 1.912 2.645 2.387 4.216 0.713 3.12 0.713 4.65l0.009073 0.019zm29.636 9.858-0.03-3.348c-0.02-1.157-0.072-2.253-0.155-3.286s-0.227-1.974-0.434-2.82-0.517-1.52-0.93-2.015c-0.3-0.33-0.66-0.6-1.116-0.775s-1.157-0.28-2.108-0.28-1.653 0.093-2.108 0.28-0.827 0.444-1.116 0.775c-0.413 0.496-0.723 1.168-0.93 2.015s-0.362 1.788-0.465 2.82c-0.10615 1.0921-0.15788 2.1888-0.155 3.286v6.696c-0.002878 1.0972 0.048852 2.1939 0.155 3.286 0.103 1.033 0.258 1.974 0.465 2.82s0.517 1.52 0.93 2.015c0.3 0.33 0.66 0.6 1.116 0.775s1.157 0.28 2.108 0.28 1.653-0.093 2.108-0.28 0.827-0.444 1.116-0.775c0.413-0.496 0.723-1.168 0.93-2.015 0.21856-0.92713 0.36368-1.8701 0.434-2.82 0.084-1.032 0.134-2.13 0.155-3.286l0.023-1.705 8e-3 -1.643h-1e-3zm11.036 0c0 2.232-0.083 4.38-0.248 6.448s-0.444 3.978-0.837 5.735-0.9 3.317-1.52 4.68-1.385 2.46-2.294 3.286c-1.2 1.075-2.77 1.808-4.712 2.2s-4 0.6-6.2 0.6-4.257-0.196-6.2-0.6-3.513-1.126-4.712-2.2c-0.9-0.827-1.674-1.922-2.294-3.286s-1.126-2.924-1.52-4.68-0.672-3.668-0.837-5.735-0.248-4.216-0.248-6.448 0.083-4.38 0.248-6.448 0.444-3.978 0.837-5.735 0.9-3.317 1.52-4.68 1.385-2.46 2.294-3.286c1.2-1.075 2.77-1.808 4.712-2.2s4-0.6 6.2-0.6 4.257 0.196 6.2 0.6 3.513 1.126 4.712 2.2c0.9 0.827 1.674 1.922 2.294 3.286s1.126 2.924 1.52 4.68 0.672 3.668 0.837 5.735 0.248 4.216 0.248 6.448zm38.688-9.858c0.004364 1.3346-0.19424 2.6621-0.58907 3.937-0.393 1.26-0.858 2.366-1.395 3.317-0.827 1.405-1.83 2.573-3.007 3.503-0.982 0.775-2.014 1.514-3.096 2.217l-0.655 0.418-3.193 2.077c-1.013 0.682-1.932 1.374-2.76 2.077s-1.52 1.467-2.077 2.294-0.94 1.736-1.147 2.728h17.298v9.6h-28.467v-6.448c0-2.687 0.27-4.94 0.806-6.758s1.343-3.45 2.418-4.898c1.033-1.447 2.304-2.75 3.813-3.906s3.317-2.397 5.425-3.72l0.87-0.527c0.52343-0.31945 1.0399-0.6502 1.549-0.992 0.58-0.393 1.157-0.878 1.736-1.457 0.95-0.95 1.426-2.108 1.426-3.472 0-0.33-0.052-0.692-0.155-1.085-0.10579-0.39759-0.29612-0.76768-0.558-1.085-0.27-0.33-0.6-0.6-1.023-0.837s-0.93-0.34-1.55-0.34c-0.66 0-1.395 0.052-2.2 0.155s-1.757 0.362-2.852 0.775-2.387 1.033-3.875 1.86-3.245 1.963-5.27 3.4v-11.16c1.364-0.9 2.635-1.664 3.813-2.263 1.1093-0.57032 2.2595-1.0573 3.441-1.457 1.116-0.372 2.222-0.64 3.317-0.806s2.242-0.248 3.44-0.248c2.77 0 5.084 0.393 6.944 1.178s3.348 1.798 4.464 3.038 1.912 2.645 2.387 4.216 0.713 3.12 0.713 4.65l0.009073 0.019zm29.636 9.858-0.03-3.348c-0.02-1.157-0.072-2.253-0.155-3.286s-0.227-1.974-0.434-2.82-0.517-1.52-0.93-2.015c-0.3-0.33-0.66-0.6-1.116-0.775s-1.157-0.28-2.108-0.28-1.653 0.093-2.108 0.28-0.827 0.444-1.116 0.775c-0.413 0.496-0.723 1.168-0.93 2.015s-0.362 1.788-0.465 2.82c-0.10615 1.0921-0.15788 2.1888-0.155 3.286v6.696c-0.002878 1.0972 0.048852 2.1939 0.155 3.286 0.103 1.033 0.258 1.974 0.465 2.82s0.517 1.52 0.93 2.015c0.3 0.33 0.66 0.6 1.116 0.775s1.157 0.28 2.108 0.28 1.653-0.093 2.108-0.28 0.827-0.444 1.116-0.775c0.413-0.496 0.723-1.168 0.93-2.015 0.21856-0.92713 0.36368-1.8701 0.434-2.82 0.084-1.032 0.134-2.13 0.155-3.286l0.023-1.705 8e-3 -1.643h-1e-3zm11.036 0c0 2.232-0.083 4.38-0.248 6.448s-0.444 3.978-0.837 5.735-0.9 3.317-1.52 4.68-1.385 2.46-2.294 3.286c-1.2 1.075-2.77 1.808-4.712 2.2s-4 0.6-6.2 0.6-4.257-0.196-6.2-0.6-3.513-1.126-4.712-2.2c-0.9-0.827-1.674-1.922-2.294-3.286s-1.126-2.924-1.52-4.68-0.672-3.668-0.837-5.735-0.248-4.216-0.248-6.448 0.083-4.38 0.248-6.448 0.444-3.978 0.837-5.735 0.9-3.317 1.52-4.68 1.385-2.46 2.294-3.286c1.2-1.075 2.77-1.808 4.712-2.2s4-0.6 6.2-0.6 4.257 0.196 6.2 0.6 3.513 1.126 4.712 2.2c0.9 0.827 1.674 1.922 2.294 3.286s1.126 2.924 1.52 4.68 0.672 3.668 0.837 5.735 0.248 4.216 0.248 6.448z" fill="#5C4594" fill-rule="nonzero"/>
</g>
</g>
</svg>
