<?xml version="1.0" encoding="UTF-8"?>
<svg width="698px" height="245px" viewBox="0 0 698 245" version="1.1" xmlns="http://www.w3.org/2000/svg" xmlns:xlink="http://www.w3.org/1999/xlink">
    <!-- Generator: Sketch 64 (93537) - https://sketch.com -->
    <title>Untitled</title>
    <desc>Created with Sketch.</desc>
    <g id="Page-1" stroke="none" stroke-width="1" fill="none" fill-rule="evenodd">
        <g id="2020" transform="translate(0.000000, 2.000000)">
            <path d="M0,0.5 L241,0.5 M2.5,173 L2.5,2 M242,0.5 L698,0.5 M241.5,240.5 L241.5,2 M695.5,173 L695.5,2 M2.5,239 L2.5,176 M695.5,239 L695.5,176 M0,240.5 L241,240.5 M242,240.5 L698,240.5" id="Shape" stroke="#E85454" stroke-width="4"></path>
            <polygon id="Path" fill="#E85454" fill-rule="nonzero" points="74.55 66.6 36.85 104.3 119.42 186.88 201.59 104.71 163.49 66.61"></polygon>
            <path d="M125.9,141.6 C118.65,134.35 109.7,131.8 103.53,137.97 C97.36,144.14 99.9,153.07 107.16,160.34 C114.42,167.61 123.36,170.14 129.53,163.97 C135.7,157.8 133.16,148.87 125.9,141.6 Z M119.17,148.33 C124.5,153.66 125.17,156.45 123.59,158.03 C122.01,159.61 119.21,158.93 113.89,153.61 C108.57,148.29 107.89,145.49 109.47,143.91 C111.05,142.33 113.85,143.01 119.17,148.33 Z M158.67,134.08 L133.43,108.84 L127.23,115.04 L138.63,126.44 L122.08,120.17 L115.51,126.74 L140.75,152 L146.95,145.8 L135.27,134.12 L152.27,140.52 L158.67,134.09 L158.67,134.08 Z M157.47,96.51 L151.61,90.65 L136.84,105.43 L162.08,130.67 L168.62,124.13 L158.76,114.27 L165.46,107.57 L159.6,101.71 L152.9,108.41 L149.23,104.74 L157.47,96.51 L157.47,96.51 Z M96.34,112.71 L79.18,95.57 L72.83,101.92 L89.83,118.92 C91.33,120.42 91.26,122.32 89.63,123.92 C88,125.52 86.15,125.58 84.63,124.07 L67.63,107.07 L61.09,113.61 L78.24,130.76 C83.54,136.06 90.44,135.48 95.74,130.19 C101.04,124.9 101.6,117.99 96.31,112.69 L96.33,112.69 L96.34,112.71 Z M125.24,99.99 L100,74.76 L93.8,81 L105.2,92.4 L88.65,86.08 L82.07,92.65 L107.31,117.89 L113.51,111.69 L101.84,99.99 L118.84,106.39 L125.24,99.99 L125.24,99.99 Z M137.08,71.29 L130.48,77.89 C132.68,80.53 132.68,81.59 131.68,82.59 C129.56,84.71 126.73,82.39 122.16,77.83 C117.59,73.27 115.36,70.5 117.48,68.38 C118.35,67.51 119.38,67.32 121.64,69.28 L128.18,62.74 C122.18,57.37 117.03,56.96 111.68,62.32 C105.11,68.9 106.81,75.88 115.46,84.54 C124.11,93.2 131.1,94.89 137.53,88.47 C143.31,82.69 143.01,78.15 137.13,71.27 L137.1,71.27 L137.08,71.29 Z M282.754,43.47 C282.760431,42.6641007 282.522664,41.8751447 282.072,41.207 C281.617,40.525 280.729,40.184 279.406,40.184 L276.864,40.184 L276.864,46.756 L279.406,46.756 C280.729,46.756 281.606,46.416 282.072,45.733 C282.522664,45.0648553 282.760431,44.2758993 282.754,43.47 L282.754,43.47 Z M285.296,72 L277.112,56.5 L276.864,56.5 L276.864,72 L266.076,72 L266.076,30.584 L279.902,30.584 C281.927,30.584 283.798,30.884 285.502,31.514 C287.206,32.144 288.685,33.002 289.904,34.118 C291.123,35.234 292.074,36.588 292.756,38.178 C293.438,39.768 293.779,41.536 293.779,43.478 C293.779,45.958 293.252,48.158 292.199,50.081 C291.146,52.004 289.626,53.501 287.642,54.576 L297.758,72 L285.296,72 Z M334.338,58.732 C334.338,60.932 333.976,62.876 333.253,64.592 C332.53,66.308 331.507,67.754 330.183,68.932 C328.859,70.11 327.29,71.019 325.471,71.66 C323.652,72.301 321.668,72.62 319.519,72.62 C317.319,72.62 315.334,72.3 313.536,71.66 C311.738,71.02 310.178,70.11 308.856,68.932 C307.534,67.754 306.51,66.307 305.786,64.592 C305.062,62.877 304.701,60.924 304.701,58.732 L304.701,30.584 L315.427,30.584 L315.427,58.484 C315.427,59.724 315.799,60.684 316.543,61.398 C317.287,62.112 318.32,62.452 319.643,62.452 C320.966,62.452 322.009,62.102 322.773,61.398 C323.537,60.694 323.92,59.724 323.92,58.484 L323.92,30.584 L334.336,30.584 L334.336,58.732 L334.338,58.732 Z M364.408,58.608 C364.408,57.658 364.108,56.778 363.478,55.973 C362.848,55.168 361.804,54.773 360.316,54.773 L354.55,54.773 L354.55,62.461 L360.316,62.461 C361.804,62.461 362.858,62.058 363.478,61.261 C364.098,60.464 364.408,59.577 364.408,58.626 L364.408,58.608 Z M363.354,43.046 C363.354,42.343 363.127,41.682 362.672,41.062 C362.217,40.442 361.37,40.132 360.13,40.132 L354.55,40.132 L354.55,45.96 L360.13,45.96 C361.37,45.96 362.217,45.66 362.672,45.03 C363.127,44.4 363.354,43.75 363.354,43.046 Z M375.454,58.98 C375.454,60.923 375.114,62.68 374.431,64.28 C373.748,65.88 372.757,67.235 371.455,68.372 C370.153,69.509 368.582,70.397 366.743,71.038 C364.904,71.679 362.847,71.998 360.573,71.998 L343.833,71.998 L343.833,30.584 L359.829,30.584 C361.937,30.584 363.869,30.854 365.626,31.39 C367.383,31.926 368.902,32.702 370.183,33.715 C371.464,34.728 372.467,35.988 373.19,37.497 C373.913,39.006 374.275,40.731 374.275,42.674 C374.275,44.244 373.975,45.712 373.407,47.076 C372.839,48.44 372.043,49.473 371.051,50.176 C371.919,50.756 372.651,51.406 373.221,52.129 C373.791,52.852 374.254,53.617 374.585,54.423 C374.904522,55.18939 375.133407,55.9904876 375.267,56.81 C375.385295,57.5274009 375.447484,58.2529323 375.453,58.98 L375.454,58.98 Z M401.742,53.772 L401.742,72 L391.016,72 L391.016,53.772 L379.04,30.584 L391.254,30.584 L396.648,42.302 L402.104,30.584 L413.76,30.584 L401.732,53.772 L401.742,53.772 Z M473.228,58.732 C473.228,60.932 472.866,62.876 472.143,64.592 C471.42,66.308 470.397,67.754 469.073,68.932 C467.749,70.11 466.18,71.019 464.361,71.66 C462.542,72.301 460.558,72.62 458.409,72.62 C456.209,72.62 454.224,72.3 452.426,71.66 C450.628,71.02 449.068,70.11 447.746,68.932 C446.424,67.754 445.4,66.307 444.676,64.592 C443.952,62.877 443.591,60.924 443.591,58.732 L443.591,30.584 L454.317,30.584 L454.317,58.484 C454.317,59.724 454.689,60.684 455.433,61.398 C456.177,62.112 457.21,62.452 458.533,62.452 C459.856,62.452 460.899,62.102 461.663,61.398 C462.427,60.694 462.81,59.724 462.81,58.484 L462.81,30.584 L473.226,30.584 L473.226,58.732 L473.228,58.732 Z M502.234,72 L493.554,52.842 L493.554,72 L483.386,72 L483.386,30.584 L494.174,30.584 L502.606,49.308 L502.606,30.584 L512.774,30.584 L512.774,72 L502.234,72 Z M552.454,58.174 C552.247,60.778 551.854,63 551.307,64.839 C550.76,66.678 549.922,68.177 548.827,69.334 C547.732,70.491 546.357,71.328 544.704,71.834 C543.051,72.34 541.046,72.609 538.69,72.609 C533.39,72.609 529.597,70.842 527.282,67.309 C524.967,63.776 523.81,58.433 523.81,51.282 C523.81,47.727 524.09,44.617 524.647,41.952 C525.204,39.287 526.094,37.064 527.313,35.287 C528.532,33.51 530.113,32.187 532.025,31.287 C533.937,30.387 536.251,29.954 538.938,29.954 C543.361,29.954 546.605,31.101 548.672,33.394 C550.739,35.687 551.896,39.17 552.144,43.841 L541.418,43.841 C541.294,42.105 540.994,40.979 540.518,40.461 C540.07107,39.9561537 539.425124,39.6728444 538.751,39.686 C537.015,39.686 535.931,40.678 535.496,42.662 C535.083,44.562 534.866,47.247 534.846,50.749 L534.845,51.279 C534.845,53.139 534.885,54.803 534.969,56.279 C535.053,57.755 535.227,58.976 535.496,59.979 C535.765,60.982 536.156,61.725 536.674,62.242 C537.192,62.759 537.874,63.017 538.751,63.017 C539.578,63.017 540.208,62.717 540.651,62.087 C541.094,61.457 541.405,60.165 541.611,58.181 L552.461,58.181 L552.454,58.174 Z M581.78,51.292 C581.78,49.092 581.677,47.262 581.48,45.774 C581.283,44.286 580.984,43.098 580.612,42.209 C580.24,41.32 579.785,40.679 579.248,40.287 C578.728685,39.9002115 578.097517,39.6930984 577.45,39.696924 C576.802369,39.6923675 576.170974,39.8995549 575.652,40.287 C575.114,40.681 574.66,41.32 574.288,42.209 C573.916,43.098 573.628,44.286 573.42,45.774 C573.212,47.262 573.12,49.101 573.12,51.292 C573.12,53.483 573.223,55.322 573.42,56.81 C573.617,58.298 573.916,59.486 574.288,60.375 C574.66,61.264 575.115,61.905 575.652,62.297 C576.171315,62.6837885 576.802483,62.8909016 577.45,62.887076 C578.097631,62.8916325 578.729026,62.6844451 579.248,62.297 C579.786,61.903 580.24,61.264 580.612,60.375 C580.984,59.486 581.272,58.298 581.48,56.81 C581.688,55.322 581.78,53.483 581.78,51.292 L581.78,51.292 Z M592.816,51.292 C592.816,54.268 592.486,57.058 591.824,59.662 C591.162,62.266 590.191,64.529 588.91,66.462 C587.629,68.395 586.027,69.892 584.105,70.988 C582.183,72.084 579.961,72.631 577.44,72.631 C574.919,72.631 572.697,72.083 570.775,70.988 C568.853,69.893 567.251,68.384 565.97,66.462 C564.689,64.54 563.717,62.277 563.056,59.662 C562.395,57.047 562.064,54.268 562.064,51.292 C562.064,48.316 562.394,45.536 563.056,42.952 C563.718,40.368 564.689,38.116 565.97,36.194 C567.251,34.272 568.853,32.754 570.775,31.637 C572.697,30.52 574.919,29.963 577.44,29.963 C579.961,29.963 582.183,30.521 584.105,31.637 C586.027,32.753 587.629,34.272 588.91,36.194 C590.191,38.116 591.163,40.369 591.824,42.952 C592.485,45.535 592.816,48.315 592.816,51.292 L592.816,51.292 Z M621.274,72 L612.594,52.842 L612.594,72 L602.426,72 L602.426,30.584 L613.214,30.584 L621.646,49.308 L621.646,30.584 L631.814,30.584 L631.814,72 L621.274,72 L621.274,72 Z M654.32,40.194 L654.32,46.208 L665.294,46.208 L665.294,55.808 L654.32,55.808 L654.32,72 L643.594,72 L643.594,30.584 L667.836,30.584 L667.836,40.184 L654.32,40.184 L654.32,40.194 Z M283.684,140 L283.684,123.26 L275.996,123.26 L275.996,140 L265.27,140 L265.27,98.584 L275.996,98.584 L275.996,113.65 L283.684,113.65 L283.684,98.584 L294.4,98.584 L294.4,140 L283.674,140 L283.684,140 Z M319.21,111.108 L316.358,123.808 L322.124,123.808 L319.21,111.108 L319.21,111.108 Z M325.782,140 L323.984,132.002 L314.56,132.002 L312.762,140 L302.284,140 L312.204,98.584 L326.774,98.584 L336.694,140 L325.782,140 L325.782,140 Z M368.686,140 L368.686,117.556 L364.098,126.484 L358.9,126.484 L354.312,117.556 L354.312,140 L343.896,140 L343.896,98.584 L354.56,98.584 L361.504,111.356 L368.448,98.584 L379.422,98.584 L379.422,140 L368.696,140 L368.686,140 Z M409.048,126.608 C409.048,125.658 408.748,124.778 408.118,123.973 C407.488,123.168 406.444,122.773 404.956,122.773 L399.2,122.773 L399.2,130.461 L404.966,130.461 C406.454,130.461 407.508,130.058 408.128,129.261 C408.748,128.464 409.058,127.577 409.058,126.626 L409.048,126.608 Z M407.994,111.046 C407.994,110.343 407.767,109.682 407.312,109.062 C406.857,108.442 406.01,108.132 404.77,108.132 L399.19,108.132 L399.19,113.96 L404.77,113.96 C406.01,113.96 406.857,113.66 407.312,113.03 C407.767,112.4 407.994,111.75 407.994,111.046 Z M420.094,126.98 C420.094,128.923 419.754,130.68 419.071,132.28 C418.388,133.88 417.397,135.235 416.095,136.372 C414.793,137.509 413.222,138.397 411.383,139.038 C409.544,139.679 407.487,139.998 405.213,139.998 L388.473,139.998 L388.473,98.584 L404.469,98.584 C406.577,98.584 408.509,98.854 410.266,99.39 C412.023,99.926 413.542,100.702 414.823,101.715 C416.104,102.728 417.107,103.988 417.83,105.497 C418.553,107.006 418.915,108.731 418.915,110.674 C418.915,112.244 418.615,113.712 418.047,115.076 C417.479,116.44 416.683,117.473 415.691,118.176 C416.559,118.756 417.291,119.406 417.861,120.129 C418.431,120.852 418.894,121.617 419.225,122.423 C419.544522,123.18939 419.773407,123.990488 419.907,124.81 C420.025295,125.527401 420.087484,126.252932 420.093,126.98 L420.094,126.98 Z M458.348,126.732 C458.348,128.932 457.986,130.876 457.263,132.592 C456.54,134.308 455.517,135.754 454.193,136.932 C452.869,138.11 451.3,139.019 449.481,139.66 C447.662,140.301 445.678,140.62 443.529,140.62 C441.329,140.62 439.344,140.3 437.546,139.66 C435.748,139.02 434.188,138.11 432.866,136.932 C431.544,135.754 430.52,134.307 429.796,132.592 C429.072,130.877 428.711,128.924 428.711,126.732 L428.711,98.584 L439.437,98.584 L439.437,126.484 C439.437,127.724 439.809,128.684 440.553,129.398 C441.297,130.112 442.33,130.452 443.653,130.452 C444.976,130.452 446.019,130.102 446.783,129.398 C447.547,128.694 447.93,127.724 447.93,126.484 L447.93,98.584 L458.346,98.584 L458.346,126.732 L458.348,126.732 Z M486.124,111.48 C486.130431,110.674101 485.892664,109.885145 485.442,109.217 C484.987,108.535 484.099,108.194 482.776,108.194 L480.234,108.194 L480.234,114.766 L482.776,114.766 C484.099,114.766 484.976,114.426 485.442,113.743 C485.892664,113.074855 486.130431,112.285899 486.124,111.48 L486.124,111.48 Z M488.666,140 L480.482,124.5 L480.234,124.5 L480.234,140 L469.446,140 L469.446,98.584 L483.272,98.584 C485.297,98.584 487.168,98.884 488.872,99.514 C490.576,100.144 492.055,101.002 493.274,102.118 C494.493,103.234 495.444,104.588 496.126,106.178 C496.808,107.768 497.149,109.536 497.149,111.478 C497.149,113.958 496.622,116.158 495.569,118.081 C494.516,120.004 492.996,121.501 491.012,122.576 L501.118,140 L488.656,140 L488.666,140 Z M537.15,138.016 C535,139.008 532.903,139.69 530.857,140.062 C528.811,140.434 526.61,140.62 524.254,140.62 C521.071,140.62 518.416,140.02 516.287,138.853 C514.158,137.686 512.443,136.103 511.141,134.141 C509.839,132.179 508.909,129.915 508.341,127.341 C507.773,124.767 507.503958,122.091 507.503958,119.281 C507.499853,116.630494 507.801514,113.988359 508.403,111.407 C509.003,108.844 509.963,106.571 511.286,104.587 C512.609,102.603 514.346,101.001 516.494,99.782 C518.642,98.563 521.247,97.952 524.306,97.952 C528.398,97.952 531.476,99.089 533.544,101.352 C535.612,103.615 536.809,106.725 537.14,110.652 L526.414,110.652 C526.249,109.536 525.959,108.752 525.546,108.327 C525.133,107.902 524.533,107.677 523.748,107.677 C522.756,107.677 521.918,107.997 521.248,108.637 C520.578,109.277 520.028,110.135 519.636,111.21 C519.244,112.285 518.964,113.525 518.799,114.93 C518.634,116.335 518.551,117.782 518.551,119.27 C518.549385,120.688478 518.621817,122.106074 518.768,123.517 C518.913,124.902 519.202,126.142 519.636,127.237 C520.07,128.332 520.68,129.211 521.466,129.872 C522.252,130.533 523.264,130.864 524.504,130.864 C524.834,130.864 525.154,130.844 525.464,130.802 C525.787217,130.757943 526.107717,130.695846 526.424,130.616 L526.424,125.098 L522.704,125.098 L522.704,115.612 L537.15,115.612 L537.15,137.994 L537.15,138.016 Z M294.668073,175.822 C294.672437,177.156608 294.473832,178.484125 294.079,179.759 C293.686,181.019 293.221,182.125 292.684,183.076 C291.857,184.481 290.854,185.649 289.677,186.579 C288.695,187.354 287.663,188.093 286.581,188.796 L285.926,189.214 L282.733,191.291 C281.72,191.973 280.801,192.665 279.973,193.368 C279.145,194.071 278.453,194.835 277.896,195.662 C277.339,196.489 276.956,197.398 276.749,198.39 L294.047,198.39 L294.047,207.99 L265.58,207.99 L265.58,201.542 C265.58,198.855 265.85,196.602 266.386,194.784 C266.922,192.966 267.729,191.334 268.804,189.886 C269.837,188.439 271.108,187.136 272.617,185.98 C274.126,184.824 275.934,183.583 278.042,182.26 L278.912,181.733 C279.435431,181.41355 279.951885,181.082805 280.461,180.741 C281.041,180.348 281.618,179.863 282.197,179.284 C283.147,178.334 283.623,177.176 283.623,175.812 C283.623,175.482 283.571,175.12 283.468,174.727 C283.362207,174.329408 283.171876,173.959321 282.91,173.642 C282.64,173.312 282.31,173.042 281.887,172.805 C281.464,172.568 280.957,172.465 280.337,172.465 C279.677,172.465 278.942,172.517 278.137,172.62 C277.332,172.723 276.38,172.982 275.285,173.395 C274.19,173.808 272.898,174.428 271.41,175.255 C269.922,176.082 268.165,177.218 266.14,178.655 L266.14,167.495 C267.504,166.595 268.775,165.831 269.953,165.232 C271.062283,164.661678 272.212457,164.174667 273.394,163.775 C274.51,163.403 275.616,163.135 276.711,162.969 C277.806,162.803 278.953,162.721 280.151,162.721 C282.921,162.721 285.235,163.114 287.095,163.899 C288.955,164.684 290.443,165.697 291.559,166.937 C292.675,168.177 293.471,169.582 293.946,171.153 C294.421,172.724 294.659,174.273 294.659,175.803 L294.668073,175.822 Z M324.304,185.68 L324.274,182.332 C324.254,181.175 324.202,180.079 324.119,179.046 C324.036,178.013 323.892,177.072 323.685,176.226 C323.478,175.38 323.168,174.706 322.755,174.211 C322.455,173.881 322.095,173.611 321.639,173.436 C321.183,173.261 320.482,173.156 319.531,173.156 C318.58,173.156 317.878,173.249 317.423,173.436 C316.968,173.623 316.596,173.88 316.307,174.211 C315.894,174.707 315.584,175.379 315.377,176.226 C315.17,177.073 315.015,178.014 314.912,179.046 C314.805852,180.138084 314.754122,181.234774 314.757,182.332 L314.757,189.028 C314.754122,190.125226 314.805852,191.221916 314.912,192.314 C315.015,193.347 315.17,194.288 315.377,195.134 C315.584,195.98 315.894,196.654 316.307,197.149 C316.607,197.479 316.967,197.749 317.423,197.924 C317.879,198.099 318.58,198.204 319.531,198.204 C320.482,198.204 321.184,198.111 321.639,197.924 C322.094,197.737 322.466,197.48 322.755,197.149 C323.168,196.653 323.478,195.981 323.685,195.134 C323.903564,194.206869 324.04868,193.263946 324.119,192.314 C324.203,191.282 324.253,190.184 324.274,189.028 L324.297,187.323 L324.305,185.68 L324.304,185.68 Z M335.34,185.68 C335.34,187.912 335.257,190.06 335.092,192.128 C334.927,194.196 334.648,196.106 334.255,197.863 C333.862,199.62 333.355,201.18 332.735,202.543 C332.115,203.906 331.35,205.003 330.441,205.829 C329.241,206.904 327.671,207.637 325.729,208.029 C323.787,208.421 321.729,208.629 319.529,208.629 C317.329,208.629 315.272,208.433 313.329,208.029 C311.386,207.625 309.816,206.903 308.617,205.829 C307.717,205.002 306.943,203.907 306.323,202.543 C305.703,201.179 305.197,199.619 304.803,197.863 C304.409,196.107 304.131,194.195 303.966,192.128 C303.801,190.061 303.718,187.912 303.718,185.68 C303.718,183.448 303.801,181.3 303.966,179.232 C304.131,177.164 304.41,175.254 304.803,173.497 C305.196,171.74 305.703,170.18 306.323,168.817 C306.943,167.454 307.708,166.357 308.617,165.531 C309.817,164.456 311.387,163.723 313.329,163.331 C315.271,162.939 317.329,162.731 319.529,162.731 C321.729,162.731 323.786,162.927 325.729,163.331 C327.672,163.735 329.242,164.457 330.441,165.531 C331.341,166.358 332.115,167.453 332.735,168.817 C333.355,170.181 333.861,171.741 334.255,173.497 C334.649,175.253 334.927,177.165 335.092,179.232 C335.257,181.299 335.34,183.448 335.34,185.68 Z M374.028073,175.822 C374.032437,177.156608 373.833832,178.484125 373.439,179.759 C373.046,181.019 372.581,182.125 372.044,183.076 C371.217,184.481 370.214,185.649 369.037,186.579 C368.055,187.354 367.023,188.093 365.941,188.796 L365.286,189.214 L362.093,191.291 C361.08,191.973 360.161,192.665 359.333,193.368 C358.505,194.071 357.813,194.835 357.256,195.662 C356.699,196.489 356.316,197.398 356.109,198.39 L373.407,198.39 L373.407,207.99 L344.94,207.99 L344.94,201.542 C344.94,198.855 345.21,196.602 345.746,194.784 C346.282,192.966 347.089,191.334 348.164,189.886 C349.197,188.439 350.468,187.136 351.977,185.98 C353.486,184.824 355.294,183.583 357.402,182.26 L358.272,181.733 C358.795431,181.41355 359.311885,181.082805 359.821,180.741 C360.401,180.348 360.978,179.863 361.557,179.284 C362.507,178.334 362.983,177.176 362.983,175.812 C362.983,175.482 362.931,175.12 362.828,174.727 C362.722207,174.329408 362.531876,173.959321 362.27,173.642 C362,173.312 361.67,173.042 361.247,172.805 C360.824,172.568 360.317,172.465 359.697,172.465 C359.037,172.465 358.302,172.517 357.497,172.62 C356.692,172.723 355.74,172.982 354.645,173.395 C353.55,173.808 352.258,174.428 350.77,175.255 C349.282,176.082 347.525,177.218 345.5,178.655 L345.5,167.495 C346.864,166.595 348.135,165.831 349.313,165.232 C350.422283,164.661678 351.572457,164.174667 352.754,163.775 C353.87,163.403 354.976,163.135 356.071,162.969 C357.166,162.803 358.313,162.721 359.511,162.721 C362.281,162.721 364.595,163.114 366.455,163.899 C368.315,164.684 369.803,165.697 370.919,166.937 C372.035,168.177 372.831,169.582 373.306,171.153 C373.781,172.724 374.019,174.273 374.019,175.803 L374.028073,175.822 Z M403.664,185.68 L403.634,182.332 C403.614,181.175 403.562,180.079 403.479,179.046 C403.396,178.013 403.252,177.072 403.045,176.226 C402.838,175.38 402.528,174.706 402.115,174.211 C401.815,173.881 401.455,173.611 400.999,173.436 C400.543,173.261 399.842,173.156 398.891,173.156 C397.94,173.156 397.238,173.249 396.783,173.436 C396.328,173.623 395.956,173.88 395.667,174.211 C395.254,174.707 394.944,175.379 394.737,176.226 C394.53,177.073 394.375,178.014 394.272,179.046 C394.165852,180.138084 394.114122,181.234774 394.117,182.332 L394.117,189.028 C394.114122,190.125226 394.165852,191.221916 394.272,192.314 C394.375,193.347 394.53,194.288 394.737,195.134 C394.944,195.98 395.254,196.654 395.667,197.149 C395.967,197.479 396.327,197.749 396.783,197.924 C397.239,198.099 397.94,198.204 398.891,198.204 C399.842,198.204 400.544,198.111 400.999,197.924 C401.454,197.737 401.826,197.48 402.115,197.149 C402.528,196.653 402.838,195.981 403.045,195.134 C403.263564,194.206869 403.40868,193.263946 403.479,192.314 C403.563,191.282 403.613,190.184 403.634,189.028 L403.657,187.323 L403.665,185.68 L403.664,185.68 Z M414.7,185.68 C414.7,187.912 414.617,190.06 414.452,192.128 C414.287,194.196 414.008,196.106 413.615,197.863 C413.222,199.62 412.715,201.18 412.095,202.543 C411.475,203.906 410.71,205.003 409.801,205.829 C408.601,206.904 407.031,207.637 405.089,208.029 C403.147,208.421 401.089,208.629 398.889,208.629 C396.689,208.629 394.632,208.433 392.689,208.029 C390.746,207.625 389.176,206.903 387.977,205.829 C387.077,205.002 386.303,203.907 385.683,202.543 C385.063,201.179 384.557,199.619 384.163,197.863 C383.769,196.107 383.491,194.195 383.326,192.128 C383.161,190.061 383.078,187.912 383.078,185.68 C383.078,183.448 383.161,181.3 383.326,179.232 C383.491,177.164 383.77,175.254 384.163,173.497 C384.556,171.74 385.063,170.18 385.683,168.817 C386.303,167.454 387.068,166.357 387.977,165.531 C389.177,164.456 390.747,163.723 392.689,163.331 C394.631,162.939 396.689,162.731 398.889,162.731 C401.089,162.731 403.146,162.927 405.089,163.331 C407.032,163.735 408.602,164.457 409.801,165.531 C410.701,166.358 411.475,167.453 412.095,168.817 C412.715,170.181 413.221,171.741 413.615,173.497 C414.009,175.253 414.287,177.165 414.452,179.232 C414.617,181.299 414.7,183.448 414.7,185.68 Z" id="Shape" fill="#5C4594" fill-rule="nonzero"></path>
        </g>
    </g>
</svg>