<?xml version="1.0" encoding="UTF-8"?>
<svg width="134.33mm" height="102.44mm" version="1.1" viewBox="0 0 134.33 102.44" xmlns="http://www.w3.org/2000/svg" xmlns:cc="http://creativecommons.org/ns#" xmlns:dc="http://purl.org/dc/elements/1.1/" xmlns:rdf="http://www.w3.org/1999/02/22-rdf-syntax-ns#">
<metadata>
<rdf:RDF>
<cc:Work rdf:about="">
<dc:format>image/svg+xml</dc:format>
<dc:type rdf:resource="http://purl.org/dc/dcmitype/StillImage"/>
<dc:title/>
</cc:Work>
</rdf:RDF>
</metadata>
<g transform="translate(-19.05 -106.69)">
<g transform="matrix(.26458 0 0 .26458 19.05 106.47)" fill="none">
<g>
<polygon points="381.27 25 113.51 25 0 138.78 248.61 388 496 140.01" fill="#e85454"/>
<g transform="translate(72)" fill="#5c4594">
<path d="m290.29 115.46-17.625-17.677-44.459 44.594 75.954 76.179 19.675-19.727-29.677-29.768 20.126-20.186-17.625-17.677-20.126 20.189-11.032-11.065zm3.6051 113.39-75.957-76.182-18.648 18.707 34.339 34.437-49.8-18.93-19.786 19.845 75.954 76.179 18.648-18.701-35.133-35.24 51.052 19.274zm-118.84 43.006c16.033 16.078 18.08 24.52 13.301 29.313-4.7757 4.7868-13.187 2.7345-29.22-13.346-16.033-16.081-18.083-24.517-13.304-29.307 4.7757-4.7929 13.193-2.7405 29.223 13.34zm20.24-20.3c-21.832-21.894-48.78-29.536-67.314-10.947s-10.915 45.617 10.915 67.514c21.832 21.894 48.78 29.536 67.314 10.947 18.534-18.589 10.915-45.617-10.915-67.514z"/>
<path d="m228.93 39.392-19.9 19.956c6.5963 7.9831 6.5963 11.176 3.6382 14.143-6.3676 6.3865-14.896-0.56742-28.654-14.367-13.758-13.802-20.466-22.126-14.098-28.513 2.615-2.6228 5.6845-3.1932 12.506 2.7345l19.672-19.727c-17.965-16.196-33.541-17.451-49.692-1.2556-19.78 19.845-14.664 40.939 11.372 67.058 26.039 26.116 47.077 31.247 66.405 11.861 17.4-17.451 16.488-31.136-1.2488-51.892zm-35.624 86.592-75.96-76.179-18.645 18.701 34.336 34.443-49.8-18.93-19.786 19.842 75.957 76.182 18.648-18.701-35.136-35.24 51.052 19.274zm-86.965 38.412-51.621-51.774-19.106 19.156 51.169 51.318c4.547 4.5635 4.3183 10.265-0.56875 15.172-4.89 4.9015-10.463 5.0162-15.01 0.45272l-51.169-51.318-19.669 19.73 51.621 51.777c15.919 15.966 36.728 14.252 52.647-1.7113 15.919-15.966 17.625-36.837 1.7062-52.803z"/>
</g>
<g transform="rotate(45)" fill="#5c4594" stroke-width="2.4214" aria-label="20">
<path d="m329.09-209.86v13.053h-42.043v-10.924c12.454-20.367 19.847-32.963 22.18-37.786 2.3646-4.8553 3.5469-8.6387 3.5469-11.35 0-2.0808-0.36257-3.6257-1.0877-4.6346-0.69362-1.0404-1.7656-1.5606-3.2159-1.5606s-2.538 0.5675-3.2632 1.7025c-0.69361 1.135-0.86442 3.3939-1.0404 6.7628l-0.14205 2.719c-5.6357 0.0831-11.136 0.0216-16.723-0.0416l-0.0316-0.90796s-3e-3 -4.9381 0.43887-7.3973c0.44139-2.4907 1.5291-4.9341 3.2632-7.3303 1.734-2.3961 3.9883-4.209 6.7628-5.4386 2.7745-1.2296 6.1007-1.8444 9.9786-1.8444 7.5983 0 13.336 1.8917 17.214 5.6751 3.9095 3.7518 5.8642 8.5126 5.8642 14.282 0 4.3824-1.1035 9.017-3.3104 13.904-2.1754 4.8868-8.6229 15.26-19.342 31.118z"/>
<path d="m380.37-247.4v25.538q0 8.7018-0.94584 12.674-0.94585 3.9725-3.9252 7.4249-2.9794 3.4523-7.1884 4.9657t-9.4111 1.5134q-6.8574 0-11.397-1.5606-4.54-1.6079-7.2357-4.9657-2.6956-3.3577-3.8307-7.0465-1.135-3.7361-1.135-11.823v-26.72q0-10.546 1.7971-15.796 1.8444-5.2494 7.2357-8.418 5.4386-3.1686 13.147-3.1686 6.2899 0 11.256 2.2227 4.9657 2.1754 7.4249 5.344 2.4592 3.1686 3.3104 7.1411 0.89855 3.9725 0.89855 12.674zm-19.106-6.4317q0-6.1007-0.6148-7.614-0.5675-1.5606-2.7429-1.5606-2.1282 0-2.8375 1.6552-0.66209 1.6079-0.66209 7.5194v37.361q0 6.6682 0.6148 8.0397 0.66209 1.3715 2.7902 1.3715 2.1282 0 2.7902-1.6079 0.66209-1.6079 0.66209-7.2357z"/>
</g>
<g transform="rotate(-45 -.41383 .35892)" fill="#5c4594" stroke-width="1.9912" aria-label="20">
<path d="m233.22 439.46v10.734h-34.573v-8.9836q15.362-25.123 18.239-31.073 2.9168-5.989 2.9168-9.3336 0-2.5667-0.89447-3.8112-0.85558-1.2834-2.6445-1.2834t-2.6834 1.4q-0.85558 1.4-0.85558 5.5613v5.989h-14.078v-2.2945q0-5.289 0.54446-8.3224 0.54446-3.0723 2.6834-6.028t5.5613-4.4724q3.4223-1.5167 8.2058-1.5167 9.3725 0 14.156 4.6668 4.8224 4.6279 4.8224 11.745 0 5.4057-2.7223 11.434-2.6834 6.028-15.906 25.59z"/>
<path d="m276.39 408.55v21.001q0 7.1558-0.7778 10.423-0.7778 3.2668-3.2279 6.1057t-5.9113 4.0834q-3.4612 1.2445-7.7391 1.2445-5.639 0-9.3725-1.2834-3.7334-1.3223-5.9502-4.0834t-3.1501-5.7946q-0.93336-3.0723-0.93336-9.7225v-21.973q0-8.6725 1.4778-12.989 1.5167-4.3168 5.9502-6.9224 4.4724-2.6056 10.811-2.6056 5.1724 0 9.2558 1.8278 4.0834 1.7889 6.1057 4.3946t2.7223 5.8724q0.73891 3.2668 0.73891 10.423zm-15.712-5.289q0-5.0168-0.50557-6.2613-0.46668-1.2834-2.2556-1.2834-1.75 0-2.3334 1.3612-0.54446 1.3223-0.54446 6.1835v30.723q0 5.4835 0.50557 6.6113 0.54446 1.1278 2.2945 1.1278t2.2945-1.3222q0.54446-1.3223 0.54446-5.9502z"/>
</g>
</g>
</g>
</g>
</svg>
