<svg xmlns="http://www.w3.org/2000/svg" width="698" height="334" fill="none" fill-rule="evenodd"><path d="M0 2h241.48M2 239.48V4m239.48-2h456.28M241.48 239.48V4m454.28 235.48V4M0 241.48h241.48M2 329.6v-86.12m239.48-2h456.28m-2 88.12v-86.12M0 331.6h241.48m0 0h456.28" stroke="#e85454" stroke-width="4"/><path fill="#e85454" d="M74.55 67.6l-37.7 37.7 82.57 82.58 82.17-82.17-38.1-38.1z"/><path d="M125.9 142.6c-7.25-7.25-16.2-9.8-22.37-3.63s-3.63 15.1 3.63 22.37 16.2 9.8 22.37 3.63 3.63-15.1-3.63-22.37zm-6.73 6.73c5.33 5.33 6 8.12 4.42 9.7s-4.38.9-9.7-4.42-6-8.12-4.42-9.7 4.38-.9 9.7 4.42zm39.5-14.25l-25.24-25.24-6.2 6.2 11.4 11.4-16.55-6.27-6.57 6.57L140.75 153l6.2-6.2-11.68-11.68 17 6.4 6.4-6.43zm-1.2-37.57l-5.86-5.86-14.77 14.78 25.24 25.24 6.54-6.54-9.86-9.86 6.7-6.7-5.86-5.86-6.7 6.7-3.67-3.67 8.24-8.23zm-61.13 16.2L79.18 96.57l-6.35 6.35 17 17c1.5 1.5 1.43 3.4-.2 5s-3.48 1.66-5 .15l-17-17-6.54 6.54 17.15 17.15c5.3 5.3 12.2 4.72 17.5-.57s5.86-12.2.57-17.5h.02zm28.9-12.72L100 75.76 93.8 82l11.4 11.4-16.55-6.32-6.58 6.57 25.24 25.24 6.2-6.2-11.67-11.7 17 6.4 6.4-6.4zm11.84-28.7l-6.6 6.6c2.2 2.64 2.2 3.7 1.2 4.7-2.12 2.12-4.95-.2-9.52-4.76s-6.8-7.33-4.68-9.45c.87-.87 1.9-1.06 4.16.9l6.54-6.54c-6-5.37-11.15-5.78-16.5-.42-6.57 6.58-4.87 13.56 3.78 22.22s15.64 10.35 22.07 3.93c5.78-5.78 5.48-10.32-.4-17.2h-.03zm145.674-27.82a3.99 3.99 0 0 0-.682-2.263c-.455-.682-1.343-1.023-2.666-1.023h-2.542v6.572h2.542c1.323 0 2.2-.34 2.666-1.023a3.99 3.99 0 0 0 .682-2.263zM285.296 73l-8.184-15.5h-.248V73h-10.788V31.584h13.826c2.025 0 3.896.3 5.6.93s3.183 1.488 4.402 2.604 2.17 2.47 2.852 4.06 1.023 3.358 1.023 5.3c0 2.48-.527 4.68-1.58 6.603s-2.573 3.42-4.557 4.495L297.758 73h-12.462zm49.042-13.268c0 2.2-.362 4.144-1.085 5.86s-1.746 3.162-3.07 4.34-2.893 2.087-4.712 2.728-3.803.96-5.952.96c-2.2 0-4.185-.32-5.983-.96s-3.358-1.55-4.68-2.728-2.346-2.625-3.07-4.34-1.085-3.668-1.085-5.86V31.584h10.726v27.9c0 1.24.372 2.2 1.116 2.914s1.777 1.054 3.1 1.054 2.366-.35 3.13-1.054 1.147-1.674 1.147-2.914v-27.9h10.416v28.148zm30.07-.124c0-.95-.3-1.83-.93-2.635s-1.674-1.2-3.162-1.2h-5.766v7.688h5.766c1.488 0 2.542-.403 3.162-1.2s.93-1.684.93-2.635zm-1.054-15.562c0-.703-.227-1.364-.682-1.984s-1.302-.93-2.542-.93h-5.58v5.828h5.58c1.24 0 2.087-.3 2.542-.93s.682-1.28.682-1.984zm12.1 15.934c0 1.943-.34 3.7-1.023 5.3s-1.674 2.955-2.976 4.092-2.873 2.025-4.712 2.666-3.896.96-6.17.96h-16.74V31.584h15.996c2.108 0 4.04.27 5.797.806s3.276 1.312 4.557 2.325 2.284 2.273 3.007 3.782 1.085 3.234 1.085 5.177c0 1.57-.3 3.038-.868 4.402s-1.364 2.397-2.356 3.1c.868.58 1.6 1.23 2.17 1.953s1.033 1.488 1.364 2.294a10.66 10.66 0 0 1 .682 2.387 13.99 13.99 0 0 1 .186 2.17zm26.288-5.208V73h-10.726V54.772L379.04 31.584h12.214l5.394 11.718 5.456-11.718h11.656l-12.028 23.188zm71.486 4.96c0 2.2-.362 4.144-1.085 5.86s-1.746 3.162-3.07 4.34-2.893 2.087-4.712 2.728-3.803.96-5.952.96c-2.2 0-4.185-.32-5.983-.96s-3.358-1.55-4.68-2.728-2.346-2.625-3.07-4.34-1.085-3.668-1.085-5.86V31.584h10.726v27.9c0 1.24.372 2.2 1.116 2.914s1.777 1.054 3.1 1.054 2.366-.35 3.13-1.054 1.147-1.674 1.147-2.914v-27.9h10.416v28.148zM502.234 73l-8.68-19.158V73h-10.168V31.584h10.788l8.432 18.724V31.584h10.168V73h-10.54zm50.22-13.826c-.207 2.604-.6 4.826-1.147 6.665s-1.385 3.338-2.48 4.495-2.47 1.994-4.123 2.5-3.658.775-6.014.775c-5.3 0-9.093-1.767-11.408-5.3s-3.472-8.876-3.472-16.027c0-3.555.28-6.665.837-9.33s1.447-4.888 2.666-6.665 2.8-3.1 4.712-4 4.226-1.333 6.913-1.333c4.423 0 7.667 1.147 9.734 3.44s3.224 5.776 3.472 10.447h-10.726c-.124-1.736-.424-2.862-.9-3.38a2.3 2.3 0 0 0-1.767-.775c-1.736 0-2.82.992-3.255 2.976-.413 1.9-.63 4.585-.65 8.087l-.001.53c0 1.86.04 3.524.124 5s.258 2.697.527 3.7.66 1.746 1.178 2.263 1.2.775 2.077.775c.827 0 1.457-.3 1.9-.93s.754-1.922.96-3.906h10.85zm29.326-6.882c0-2.2-.103-4.03-.3-5.518s-.496-2.676-.868-3.565-.827-1.53-1.364-1.922a2.98 2.98 0 0 0-1.798-.59 2.97 2.97 0 0 0-1.798.59c-.538.394-.992 1.033-1.364 1.922s-.66 2.077-.868 3.565-.3 3.327-.3 5.518.103 4.03.3 5.518.496 2.676.868 3.565.827 1.53 1.364 1.922a2.98 2.98 0 0 0 1.798.59 2.97 2.97 0 0 0 1.798-.59c.538-.394.992-1.033 1.364-1.922s.66-2.077.868-3.565.3-3.327.3-5.518zm11.036 0c0 2.976-.33 5.766-.992 8.37s-1.633 4.867-2.914 6.8-2.883 3.43-4.805 4.526-4.144 1.643-6.665 1.643-4.743-.548-6.665-1.643-3.524-2.604-4.805-4.526-2.253-4.185-2.914-6.8-.992-5.394-.992-8.37.33-5.756.992-8.34 1.633-4.836 2.914-6.758 2.883-3.44 4.805-4.557 4.144-1.674 6.665-1.674 4.743.558 6.665 1.674 3.524 2.635 4.805 4.557 2.253 4.175 2.914 6.758.992 5.363.992 8.34zM621.274 73l-8.68-19.158V73h-10.168V31.584h10.788l8.432 18.724V31.584h10.168V73h-10.54zm33.046-31.806v6.014h10.974v9.6H654.32V73h-10.726V31.584h24.242v9.6H654.32zM283.684 141v-16.74h-7.688V141H265.27V99.584h10.726v15.066h7.688V99.584H294.4V141h-10.726zm35.526-28.892l-2.852 12.7h5.766l-2.914-12.7zM325.782 141l-1.798-7.998h-9.424L312.762 141h-10.478l9.92-41.416h14.57l9.92 41.416h-10.912zm42.904 0v-22.444l-4.588 8.928H358.9l-4.588-8.928V141h-10.416V99.584h10.664l6.944 12.772 6.944-12.772h10.974V141h-10.726zm40.362-13.392c0-.95-.3-1.83-.93-2.635s-1.674-1.2-3.162-1.2H399.2v7.688h5.766c1.488 0 2.542-.403 3.162-1.2s.93-1.684.93-2.635zm-1.054-15.562c0-.703-.227-1.364-.682-1.984s-1.302-.93-2.542-.93h-5.58v5.828h5.58c1.24 0 2.087-.3 2.542-.93s.682-1.28.682-1.984zm12.1 15.934c0 1.943-.34 3.7-1.023 5.3s-1.674 2.955-2.976 4.092-2.873 2.025-4.712 2.666-3.896.96-6.17.96h-16.74V99.584h15.996c2.108 0 4.04.27 5.797.806s3.276 1.312 4.557 2.325 2.284 2.273 3.007 3.782 1.085 3.234 1.085 5.177c0 1.57-.3 3.038-.868 4.402s-1.364 2.397-2.356 3.1c.868.58 1.6 1.23 2.17 1.953s1.033 1.488 1.364 2.294a10.66 10.66 0 0 1 .682 2.387 13.99 13.99 0 0 1 .186 2.17zm38.254-.248c0 2.2-.362 4.144-1.085 5.86s-1.746 3.162-3.07 4.34-2.893 2.087-4.712 2.728-3.803.96-5.952.96c-2.2 0-4.185-.32-5.983-.96s-3.358-1.55-4.68-2.728-2.346-2.625-3.07-4.34-1.085-3.668-1.085-5.86V99.584h10.726v27.9c0 1.24.372 2.2 1.116 2.914s1.777 1.054 3.1 1.054 2.366-.35 3.13-1.054 1.147-1.674 1.147-2.914v-27.9h10.416v28.148zm27.776-15.252a3.99 3.99 0 0 0-.682-2.263c-.455-.682-1.343-1.023-2.666-1.023h-2.542v6.572h2.542c1.323 0 2.2-.34 2.666-1.023a3.99 3.99 0 0 0 .682-2.263zm2.542 28.52l-8.184-15.5h-.248V141h-10.788V99.584h13.826c2.025 0 3.896.3 5.6.93s3.183 1.488 4.402 2.604 2.17 2.47 2.852 4.06 1.023 3.358 1.023 5.3c0 2.48-.527 4.68-1.58 6.603s-2.573 3.42-4.557 4.495L501.118 141h-12.462zm48.484-1.984c-2.15.992-4.247 1.674-6.293 2.046s-4.247.558-6.603.558c-3.183 0-5.838-.6-7.967-1.767s-3.844-2.75-5.146-4.712-2.232-4.226-2.8-6.8-.837-5.25-.837-8.06a34.46 34.46 0 0 1 .899-7.874c.6-2.563 1.56-4.836 2.883-6.82s3.06-3.586 5.208-4.805 4.753-1.83 7.812-1.83c4.092 0 7.17 1.137 9.238 3.4s3.265 5.373 3.596 9.3h-10.726c-.165-1.116-.455-1.9-.868-2.325s-1.013-.65-1.798-.65c-.992 0-1.83.32-2.5.96s-1.22 1.498-1.612 2.573-.672 2.315-.837 3.72-.248 2.852-.248 4.34a40.76 40.76 0 0 0 .217 4.247c.145 1.385.434 2.625.868 3.72s1.044 1.974 1.83 2.635 1.798.992 3.038.992c.33 0 .65-.02.96-.062a8.75 8.75 0 0 0 .96-.186v-5.518h-3.72v-9.486h14.446v22.382zm-242.482 37.806a13.16 13.16 0 0 1-.589 3.937c-.393 1.26-.858 2.366-1.395 3.317-.827 1.405-1.83 2.573-3.007 3.503-.982.775-2.014 1.514-3.096 2.217l-.655.418-3.193 2.077c-1.013.682-1.932 1.374-2.76 2.077s-1.52 1.467-2.077 2.294-.94 1.736-1.147 2.728h17.298v9.6H265.58v-6.448c0-2.687.27-4.94.806-6.758s1.343-3.45 2.418-4.898c1.033-1.447 2.304-2.75 3.813-3.906s3.317-2.397 5.425-3.72l.87-.527a42.49 42.49 0 0 0 1.549-.992c.58-.393 1.157-.878 1.736-1.457.95-.95 1.426-2.108 1.426-3.472 0-.33-.052-.692-.155-1.085a2.86 2.86 0 0 0-.558-1.085c-.27-.33-.6-.6-1.023-.837s-.93-.34-1.55-.34c-.66 0-1.395.052-2.2.155s-1.757.362-2.852.775-2.387 1.033-3.875 1.86-3.245 1.963-5.27 3.4v-11.16c1.364-.9 2.635-1.664 3.813-2.263a25.15 25.15 0 0 1 3.441-1.457c1.116-.372 2.222-.64 3.317-.806s2.242-.248 3.44-.248c2.77 0 5.084.393 6.944 1.178s3.348 1.798 4.464 3.038 1.912 2.645 2.387 4.216.713 3.12.713 4.65zm29.636 9.858l-.03-3.348c-.02-1.157-.072-2.253-.155-3.286s-.227-1.974-.434-2.82-.517-1.52-.93-2.015c-.3-.33-.66-.6-1.116-.775s-1.157-.28-2.108-.28-1.653.093-2.108.28-.827.444-1.116.775c-.413.496-.723 1.168-.93 2.015s-.362 1.788-.465 2.82a33.07 33.07 0 0 0-.155 3.286v6.696a33.07 33.07 0 0 0 .155 3.286c.103 1.033.258 1.974.465 2.82s.517 1.52.93 2.015c.3.33.66.6 1.116.775s1.157.28 2.108.28 1.653-.093 2.108-.28.827-.444 1.116-.775c.413-.496.723-1.168.93-2.015a18.12 18.12 0 0 0 .434-2.82c.084-1.032.134-2.13.155-3.286l.023-1.705.008-1.643zm11.036 0c0 2.232-.083 4.38-.248 6.448s-.444 3.978-.837 5.735-.9 3.317-1.52 4.68-1.385 2.46-2.294 3.286c-1.2 1.075-2.77 1.808-4.712 2.2s-4 .6-6.2.6-4.257-.196-6.2-.6-3.513-1.126-4.712-2.2c-.9-.827-1.674-1.922-2.294-3.286s-1.126-2.924-1.52-4.68-.672-3.668-.837-5.735-.248-4.216-.248-6.448.083-4.38.248-6.448.444-3.978.837-5.735.9-3.317 1.52-4.68 1.385-2.46 2.294-3.286c1.2-1.075 2.77-1.808 4.712-2.2s4-.6 6.2-.6 4.257.196 6.2.6 3.513 1.126 4.712 2.2c.9.827 1.674 1.922 2.294 3.286s1.126 2.924 1.52 4.68.672 3.668.837 5.735.248 4.216.248 6.448zm38.688-9.858a13.16 13.16 0 0 1-.589 3.937c-.393 1.26-.858 2.366-1.395 3.317-.827 1.405-1.83 2.573-3.007 3.503-.982.775-2.014 1.514-3.096 2.217l-.655.418-3.193 2.077c-1.013.682-1.932 1.374-2.76 2.077s-1.52 1.467-2.077 2.294-.94 1.736-1.147 2.728h17.298v9.6H344.94v-6.448c0-2.687.27-4.94.806-6.758s1.343-3.45 2.418-4.898c1.033-1.447 2.304-2.75 3.813-3.906s3.317-2.397 5.425-3.72l.87-.527a42.49 42.49 0 0 0 1.549-.992c.58-.393 1.157-.878 1.736-1.457.95-.95 1.426-2.108 1.426-3.472 0-.33-.052-.692-.155-1.085a2.86 2.86 0 0 0-.558-1.085c-.27-.33-.6-.6-1.023-.837s-.93-.34-1.55-.34c-.66 0-1.395.052-2.2.155s-1.757.362-2.852.775-2.387 1.033-3.875 1.86-3.245 1.963-5.27 3.4v-11.16c1.364-.9 2.635-1.664 3.813-2.263a25.15 25.15 0 0 1 3.441-1.457c1.116-.372 2.222-.64 3.317-.806s2.242-.248 3.44-.248c2.77 0 5.084.393 6.944 1.178s3.348 1.798 4.464 3.038 1.912 2.645 2.387 4.216.713 3.12.713 4.65zm29.636 9.858l-.03-3.348c-.02-1.157-.072-2.253-.155-3.286s-.227-1.974-.434-2.82-.517-1.52-.93-2.015c-.3-.33-.66-.6-1.116-.775s-1.157-.28-2.108-.28-1.653.093-2.108.28-.827.444-1.116.775c-.413.496-.723 1.168-.93 2.015s-.362 1.788-.465 2.82a33.07 33.07 0 0 0-.155 3.286v6.696a33.07 33.07 0 0 0 .155 3.286c.103 1.033.258 1.974.465 2.82s.517 1.52.93 2.015c.3.33.66.6 1.116.775s1.157.28 2.108.28 1.653-.093 2.108-.28.827-.444 1.116-.775c.413-.496.723-1.168.93-2.015a18.12 18.12 0 0 0 .434-2.82c.084-1.032.134-2.13.155-3.286l.023-1.705.008-1.643zm11.036 0c0 2.232-.083 4.38-.248 6.448s-.444 3.978-.837 5.735-.9 3.317-1.52 4.68-1.385 2.46-2.294 3.286c-1.2 1.075-2.77 1.808-4.712 2.2s-4 .6-6.2.6-4.257-.196-6.2-.6-3.513-1.126-4.712-2.2c-.9-.827-1.674-1.922-2.294-3.286s-1.126-2.924-1.52-4.68-.672-3.668-.837-5.735-.248-4.216-.248-6.448.083-4.38.248-6.448.444-3.978.837-5.735.9-3.317 1.52-4.68 1.385-2.46 2.294-3.286c1.2-1.075 2.77-1.808 4.712-2.2s4-.6 6.2-.6 4.257.196 6.2.6 3.513 1.126 4.712 2.2c.9.827 1.674 1.922 2.294 3.286s1.126 2.924 1.52 4.68.672 3.668.837 5.735.248 4.216.248 6.448z" fill="#5c4594" fill-rule="nonzero"/><path d="M72 298.33c0 1.903-.354 3.573-1.06 5s-1.67 2.653-2.893 3.647-2.646 1.744-4.275 2.25-3.386.76-5.27.76-3.643-.254-5.27-.76-3.054-1.258-4.275-2.25-2.186-2.21-2.893-3.647-1.06-3.108-1.06-5v-5.962h11.12v5.454c0 .972.28 1.607.836 1.903s1.07.444 1.543.444.986-.148 1.543-.444.836-.93.836-1.903V267H72v31.33zm50-2.537c0 2.24-.366 4.24-1.098 5.993s-1.768 3.235-3.107 4.44-2.93 2.135-4.77 2.79-3.85.983-6.025.983c-2.218 0-4.236-.328-6.056-.983s-3.4-1.586-4.738-2.79-2.374-2.685-3.107-4.44S92 298.034 92 295.794V267h10.858v28.54c0 1.268.377 2.262 1.13 2.98s1.8 1.078 3.138 1.078 2.395-.36 3.17-1.078 1.16-1.712 1.16-2.98V267H122v28.794zM161.24 309l-8.86-19.428V309H142v-42h11.013l8.608 18.988V267H172v42h-10.76zm32.76 0v-42h27.434v9.746h-16.548v5.722h14.22v9.746h-14.22v7.042H222V309h-28zm88-14.5c0-1.8-.466-3.154-1.398-4.092S278.48 289 277.03 289s-2.65.47-3.602 1.408S272 292.7 272 294.5s.476 3.154 1.43 4.092S275.582 300 277.03 300s2.64-.47 3.57-1.408S282 296.3 282 294.5zm11 .314c0 2.27-.405 4.327-1.215 6.175a14.48 14.48 0 0 1-3.358 4.789c-1.428 1.344-3.155 2.384-5.18 3.12S278.994 310 276.564 310s-4.658-.368-6.683-1.103-3.773-1.775-5.244-3.12-2.61-2.94-3.422-4.79-1.215-3.907-1.215-6.175a23.77 23.77 0 0 1 1.631-8.633c1.087-2.815 2.505-5.545 4.253-8.192 1.705-2.647 3.592-5.136 5.66-7.467l5.98-6.522h14.262a155 155 0 0 0-7.93 7.877c-2.6 2.773-5.03 5.545-7.29 8.318.426-.168.906-.252 1.44-.252h1.503c1.62 0 3.23.336 4.828 1.008a13.4 13.4 0 0 1 4.317 2.93c1.28 1.28 2.324 2.846 3.134 4.695s1.215 3.928 1.215 6.238zm20.277-24.853V293h-7.553v-23.04H299V263h21v6.96h-6.723zM338.27 293v-12.126h-5.54V293H325v-30h7.73v10.913h5.54V263H346v30h-7.73zm263.006-23.04V293h-7.553v-23.04H587V263h21v6.96h-6.723zM626.27 293v-12.126h-5.54V293H613v-30h7.73v10.913h5.54V263H634v30h-7.73zm-229.302-13L394 293h6l-3.032-13zm5.933 29l-1.83-8.11h-9.586l-1.83 8.11H379l10.1-42h14.82l10.1 42h-11.1zm48.34 0l-8.86-19.428V309H432v-42h11.013l8.608 18.988V267H462v42h-10.76zM502 288c0-1.39-.18-2.697-.538-3.92s-.853-2.307-1.48-3.256-1.37-1.76-2.22-2.434-1.772-1.138-2.76-1.39v22c.987-.253 1.907-.738 2.76-1.454a11.32 11.32 0 0 0 2.221-2.529c.628-.97 1.122-2.065 1.48-3.287A13.17 13.17 0 0 0 502 288zm11 0c0 3.06-.51 5.868-1.526 8.425s-2.46 4.768-4.325 6.633-4.155 3.322-6.868 4.37-5.745 1.572-9.094 1.572H484v-42h7.186c3.35 0 6.38.524 9.094 1.572s5.003 2.515 6.868 4.4 3.307 4.108 4.325 6.665S513 284.982 513 288zm67-24v5.313c0 1.792-.34 3.5-1.018 5.125-.72 1.75-1.633 3.375-2.736 4.875-.98 1.333-2.11 2.716-3.393 4.148l-.488.54c-1.23 1.333-2.386 2.73-3.467 4.188s-1.983 3-2.704 4.625a14.91 14.91 0 0 0-1.145 4.688 62.43 62.43 0 0 0-.191 4.875V309h-11.006v-7.562c0-4.25.55-7.792 1.654-10.625.72-1.792 1.74-3.542 3.054-5.25 1.15-1.495 2.3-2.862 3.45-4.102l1.17-1.237c1.087-1.163 1.975-2.196 2.664-3.1l.36-.478c.625-.835 1.046-1.447 1.26-1.835.17-.333.254-.708.254-1.125H548V264h32z" fill="#e85454" fill-rule="nonzero"/></svg>
